<?xml version="1.0" standalone="no"?>
<!DOCTYPE svg PUBLIC "-//W3C//DTD SVG 20010904//EN"
 "http://www.w3.org/TR/2001/REC-SVG-20010904/DTD/svg10.dtd">
<svg version="1.0" xmlns="http://www.w3.org/2000/svg"
 width="1024.000000pt" height="1024.000000pt" viewBox="0 0 1024.000000 1024.000000"
 preserveAspectRatio="xMidYMid meet">
<metadata>
Created by potrace 1.14, written by Peter Selinger 2001-2017
</metadata>
<g transform="translate(0.000000,1024.000000) scale(0.100000,-0.100000)"
fill="#000000" stroke="none">
<path d="M5100 8493 c-554 -25 -1109 -188 -1596 -469 -139 -80 -340 -217 -469
-321 -245 -195 -539 -512 -726 -783 -470 -679 -653 -1418 -563 -2280 61 -586
288 -1150 667 -1655 133 -177 219 -275 368 -420 223 -216 428 -376 652 -509
426 -253 838 -398 1327 -467 195 -27 645 -38 837 -20 342 33 745 135 1043 266
516 226 933 541 1344 1015 59 68 194 253 262 360 273 425 450 911 511 1400 22
178 25 647 5 810 -55 449 -177 829 -383 1198 -295 527 -687 950 -1194 1289
-358 239 -786 421 -1215 516 -167 37 -302 55 -500 67 -167 9 -224 10 -370 3z
m580 -638 c150 -21 354 -67 509 -117 594 -190 1159 -624 1513 -1163 107 -162
194 -338 203 -407 18 -142 -75 -247 -219 -248 -113 0 -159 39 -261 220 -341
605 -895 1037 -1532 1196 -253 62 -302 68 -603 68 -331 1 -439 -13 -730 -96
-589 -168 -1112 -565 -1431 -1088 -168 -275 -194 -300 -318 -300 -69 0 -119
20 -163 67 -94 99 -59 247 135 558 177 284 476 597 766 803 427 303 956 486
1521 526 116 8 499 -4 610 -19z m-102 -1040 c295 -42 563 -141 783 -291 83
-55 187 -140 222 -179 92 -105 80 -258 -26 -332 -31 -22 -54 -28 -107 -31 -86
-5 -125 8 -225 73 -210 137 -337 197 -528 249 -166 46 -292 59 -490 54 -301
-9 -567 -97 -832 -274 -135 -90 -171 -104 -258 -104 -88 0 -141 22 -185 76
-111 134 -46 284 189 439 239 158 544 273 849 319 130 19 474 20 608 1z m-34
-999 c43 -15 98 -38 122 -52 58 -34 123 -101 145 -149 34 -74 16 -190 -37
-237 -34 -30 -97 -50 -151 -50 -40 0 -75 10 -143 42 -111 51 -180 60 -266 35
-175 -50 -290 -183 -302 -348 -5 -66 -4 -69 15 -63 56 18 168 36 253 42 366
25 666 -154 772 -459 30 -88 36 -259 13 -362 -32 -146 -138 -310 -258 -401
-75 -57 -199 -118 -287 -141 -75 -19 -253 -22 -342 -5 -179 35 -375 160 -488
311 -237 321 -280 941 -91 1333 80 168 198 305 348 405 153 102 275 134 483
129 112 -3 148 -8 214 -30z m-1824 -172 c207 -61 372 -229 425 -431 19 -72 19
-222 0 -292 -54 -204 -253 -392 -464 -437 -86 -18 -230 -18 -308 1 -342 81
-546 429 -443 757 66 210 259 377 482 418 72 12 241 4 308 -16z m-1640 -121
c20 -21 83 -116 139 -211 l103 -174 104 174 c57 96 121 190 143 211 35 32 47
37 88 37 60 0 104 -26 126 -73 35 -73 48 -48 -271 -543 l-52 -81 0 -159 c0
-175 -8 -208 -63 -248 -39 -29 -131 -29 -169 -1 -51 37 -58 68 -58 247 l0 164
-33 55 c-19 30 -91 146 -161 258 -70 112 -130 218 -132 235 -11 73 63 146 149
146 44 0 53 -4 87 -37z m4462 -83 c90 -13 168 -44 206 -81 89 -87 49 -209 -68
-209 -45 0 -51 3 -88 45 -73 83 -171 99 -219 36 -38 -50 4 -93 115 -116 208
-43 264 -70 302 -144 42 -83 19 -219 -49 -289 -73 -75 -184 -108 -341 -99
-105 6 -179 25 -231 60 -97 65 -106 177 -19 222 57 30 111 13 187 -56 48 -44
97 -57 154 -40 66 20 89 79 47 118 -33 30 -56 39 -123 53 -207 40 -304 121
-305 253 0 118 88 211 230 243 69 15 117 16 202 4z m868 -1 c128 -20 212 -75
257 -167 26 -55 27 -65 33 -253 5 -215 6 -218 72 -257 35 -21 37 -65 5 -113
-61 -92 -207 -93 -295 -2 l-43 45 -35 -36 c-19 -20 -49 -43 -66 -52 -47 -24
-144 -35 -217 -23 -149 23 -220 106 -208 241 7 83 42 145 101 185 63 43 97 52
246 64 155 13 170 18 170 61 -1 62 -49 98 -130 98 -60 0 -80 -9 -139 -63 -39
-36 -47 -39 -85 -34 -89 12 -127 117 -72 197 30 44 107 87 189 105 77 17 133
18 217 4z m630 -17 c15 -11 63 -93 123 -211 l99 -193 74 161 c41 89 77 174 80
190 9 45 46 73 102 79 63 6 105 -16 132 -68 37 -72 33 -83 -156 -457 -234
-460 -261 -501 -383 -563 -143 -72 -341 6 -266 106 8 10 15 40 15 67 l0 47 55
0 c31 0 70 6 89 14 36 15 96 82 96 107 0 9 -50 109 -111 221 -139 252 -189
355 -189 386 0 34 28 88 55 106 58 38 138 42 185 8z m-3947 -1482 c91 -214
184 -341 363 -494 224 -191 545 -299 843 -283 490 27 903 310 1102 757 l47
105 698 0 698 0 23 -40 c17 -30 23 -56 23 -106 0 -78 -12 -104 -133 -295 -252
-398 -578 -722 -957 -952 -469 -285 -969 -424 -1525 -425 -250 -1 -392 13
-620 58 -592 118 -1087 384 -1515 814 -186 187 -400 483 -498 689 -31 65 -34
79 -30 142 3 56 8 74 28 95 l23 25 696 0 696 0 38 -90z"/>
<path d="M5111 4612 c-25 -9 -68 -39 -97 -65 -120 -109 -122 -269 -5 -384 71
-69 120 -88 231 -88 83 1 101 4 145 27 221 116 222 386 2 500 -58 30 -211 36
-276 10z"/>
<path d="M3430 5391 c-192 -63 -296 -260 -229 -436 31 -82 112 -163 194 -195
241 -91 501 86 483 329 -7 84 -38 152 -99 212 -71 69 -126 92 -234 95 -49 2
-101 0 -115 -5z"/>
<path d="M7295 4930 c-68 -7 -97 -20 -119 -52 -23 -33 -20 -56 14 -90 29 -29
34 -30 101 -26 67 4 73 6 105 41 29 31 34 44 34 87 l0 50 -37 -1 c-21 -1 -65
-5 -98 -9z"/>
</g>
</svg>
